<svg xmlns="http://www.w3.org/2000/svg" xmlns:xlink="http://www.w3.org/1999/xlink" version="1.1" width="1000" height="1000" viewBox="0 0 1000 1000" xml:space="preserve">
<desc>Created with Fabric.js 3.5.0</desc>
<defs>
</defs>
<rect x="0" y="0" width="100%" height="100%" fill="#ffffff"/>
<g transform="matrix(1.779 0 0 1.779 499.989 499.989)" id="960843">
<g style="" vector-effect="non-scaling-stroke">
		<g transform="matrix(1 0 0 1 0 0)" id="Capa_1">
<path style="stroke: none; stroke-width: 1; stroke-dasharray: none; stroke-linecap: butt; stroke-dashoffset: 0; stroke-linejoin: miter; stroke-miterlimit: 4; is-custom-font: none; font-file-url: none; fill: rgb(65,64,66); fill-rule: nonzero; opacity: 1;" transform=" translate(-255.5, -255.5)" d="M 455.5 40 h -400 C 24.897 40 0 64.897 0 95.5 v 320 C 0 446.103 24.897 471 55.5 471 h 400 c 30.603 0 55.5 -24.897 55.5 -55.5 v -320 C 511 64.897 486.103 40 455.5 40 z M 496 415.5 c 0 22.332 -18.168 40.5 -40.5 40.5 h -400 C 33.168 456 15 437.832 15 415.5 v -320 C 15 73.168 33.168 55 55.5 55 h 400 c 22.332 0 40.5 18.168 40.5 40.5 V 415.5 z" stroke-linecap="round"/>
</g>
		<g transform="matrix(1 0 0 1 0 -128)" id="Capa_1">
<path style="stroke: none; stroke-width: 1; stroke-dasharray: none; stroke-linecap: butt; stroke-dashoffset: 0; stroke-linejoin: miter; stroke-miterlimit: 4; is-custom-font: none; font-file-url: none; fill: rgb(65,64,66); fill-rule: nonzero; opacity: 1;" transform=" translate(-255.5, -127.5)" d="M 471.5 120 h -432 c -4.142 0 -7.5 3.357 -7.5 7.5 s 3.358 7.5 7.5 7.5 h 432 c 4.142 0 7.5 -3.357 7.5 -7.5 S 475.642 120 471.5 120 z" stroke-linecap="round"/>
</g>
		<g transform="matrix(1 0 0 1 -200 -168)" id="Capa_1">
<path style="stroke: none; stroke-width: 1; stroke-dasharray: none; stroke-linecap: butt; stroke-dashoffset: 0; stroke-linejoin: miter; stroke-miterlimit: 4; is-custom-font: none; font-file-url: none; fill: rgb(65,64,66); fill-rule: nonzero; opacity: 1;" transform=" translate(-55.5, -87.5)" d="M 55.5 95 c 1.98 0 3.91 -0.8 5.3 -2.2 c 1.4 -1.39 2.2 -3.32 2.2 -5.3 c 0 -1.971 -0.8 -3.91 -2.2 -5.3 c -1.39 -1.4 -3.32 -2.2 -5.3 -2.2 s -3.91 0.8 -5.3 2.2 c -1.4 1.39 -2.2 3.329 -2.2 5.3 c 0 1.979 0.8 3.91 2.2 5.3 C 51.59 94.2 53.52 95 55.5 95 z" stroke-linecap="round"/>
</g>
		<g transform="matrix(1 0 0 1 -136 -168)" id="Capa_1">
<path style="stroke: none; stroke-width: 1; stroke-dasharray: none; stroke-linecap: butt; stroke-dashoffset: 0; stroke-linejoin: miter; stroke-miterlimit: 4; is-custom-font: none; font-file-url: none; fill: rgb(65,64,66); fill-rule: nonzero; opacity: 1;" transform=" translate(-119.5, -87.5)" d="M 119.5 95 c 1.97 0 3.91 -0.8 5.3 -2.2 c 1.4 -1.39 2.2 -3.32 2.2 -5.3 c 0 -1.971 -0.8 -3.91 -2.2 -5.3 c -1.39 -1.4 -3.33 -2.2 -5.3 -2.2 c -1.98 0 -3.91 0.8 -5.3 2.2 c -1.4 1.39 -2.2 3.329 -2.2 5.3 c 0 1.979 0.8 3.91 2.2 5.3 C 115.59 94.2 117.52 95 119.5 95 z" stroke-linecap="round"/>
</g>
		<g transform="matrix(1 0 0 1 -168 -168)" id="Capa_1">
<path style="stroke: none; stroke-width: 1; stroke-dasharray: none; stroke-linecap: butt; stroke-dashoffset: 0; stroke-linejoin: miter; stroke-miterlimit: 4; is-custom-font: none; font-file-url: none; fill: rgb(65,64,66); fill-rule: nonzero; opacity: 1;" transform=" translate(-87.5, -87.5)" d="M 87.5 95 c 1.98 0 3.91 -0.8 5.3 -2.2 c 1.4 -1.39 2.2 -3.32 2.2 -5.3 c 0 -1.971 -0.8 -3.91 -2.2 -5.3 c -1.39 -1.4 -3.32 -2.2 -5.3 -2.2 c -1.97 0 -3.91 0.8 -5.3 2.2 c -1.4 1.39 -2.2 3.329 -2.2 5.3 c 0 1.979 0.8 3.91 2.2 5.3 C 83.59 94.2 85.53 95 87.5 95 z" stroke-linecap="round"/>
</g>
		<g transform="matrix(1 0 0 1 -112 39.9995)" id="Capa_1">
<path style="stroke: none; stroke-width: 1; stroke-dasharray: none; stroke-linecap: butt; stroke-dashoffset: 0; stroke-linejoin: miter; stroke-miterlimit: 4; is-custom-font: none; font-file-url: none; fill: rgb(65,64,66); fill-rule: nonzero; opacity: 1;" transform=" translate(-143.5, -295.4995)" d="M 188.803 210.196 c -2.929 -2.928 -7.678 -2.928 -10.606 0 l -80 80 c -2.929 2.93 -2.929 7.678 0 10.607 l 80 80 c 1.464 1.464 3.384 2.196 5.303 2.196 s 3.839 -0.732 5.303 -2.196 c 2.929 -2.93 2.929 -7.678 0 -10.607 L 114.106 295.5 l 74.697 -74.696 C 191.732 217.874 191.732 213.126 188.803 210.196 z" stroke-linecap="round"/>
</g>
		<g transform="matrix(1 0 0 1 112 39.999)" id="Capa_1">
<path style="stroke: none; stroke-width: 1; stroke-dasharray: none; stroke-linecap: butt; stroke-dashoffset: 0; stroke-linejoin: miter; stroke-miterlimit: 4; is-custom-font: none; font-file-url: none; fill: rgb(65,64,66); fill-rule: nonzero; opacity: 1;" transform=" translate(-367.5, -295.499)" d="M 332.803 210.196 c -2.929 -2.928 -7.678 -2.928 -10.606 0 c -2.929 2.93 -2.929 7.678 0 10.607 l 74.697 74.696 l -74.697 74.696 c -2.929 2.93 -2.929 7.678 0 10.607 c 1.464 1.464 3.384 2.196 5.303 2.196 s 3.839 -0.732 5.303 -2.196 l 80 -80 c 2.929 -2.93 2.929 -7.678 0 -10.607 L 332.803 210.196 z" stroke-linecap="round"/>
</g>
		<g transform="matrix(1 0 0 1 0.0003 40)" id="Capa_1">
<path style="stroke: none; stroke-width: 1; stroke-dasharray: none; stroke-linecap: butt; stroke-dashoffset: 0; stroke-linejoin: miter; stroke-miterlimit: 4; is-custom-font: none; font-file-url: none; fill: rgb(65,64,66); fill-rule: nonzero; opacity: 1;" transform=" translate(-255.5002, -295.5)" d="M 290.063 200.451 c -3.892 -1.412 -8.195 0.594 -9.611 4.485 l -64 176 c -1.416 3.894 0.592 8.196 4.485 9.612 c 0.846 0.308 1.711 0.453 2.563 0.453 c 3.064 0 5.941 -1.893 7.049 -4.938 l 64 -176 C 295.964 206.17 293.956 201.867 290.063 200.451 z" stroke-linecap="round"/>
</g>
</g>
</g>
</svg>