<?xml version="1.0"?>
<svg width="32" height="32" xmlns="http://www.w3.org/2000/svg" xmlns:svg="http://www.w3.org/2000/svg">
 <title>3</title>
 <g class="layer">
  <title>Layer 1</title>
  <path d="m3.595,2.806c-0.55,1.49 -0.855,2.844 -1.026,4.548c-0.072,0.719 -0.051,2.305 0.036,2.702c0.019,0.086 0.018,0.087 -0.173,0.306c-1.958,2.243 -2.653,4.704 -2.333,8.264c0.589,6.552 4.306,10.202 11.074,10.872c0.519,0.051 8.97,0.06 9.543,0.01c6.701,-0.587 10.525,-4.203 11.183,-10.576c0.382,-3.697 -0.294,-6.25 -2.253,-8.511l-0.234,-0.27l0.04,-0.299c0.05,-0.375 0.058,-1.779 0.012,-2.335c-0.138,-1.675 -0.542,-3.479 -1.095,-4.892l-0.064,-0.164l-0.085,0.007c-1.548,0.129 -5.074,1.718 -7.523,3.389l-0.303,0.207l-0.233,-0.055c-2.048,-0.48 -6.471,-0.469 -8.394,0.022l-0.128,0.033l-0.495,-0.327c-2.494,-1.647 -5.131,-2.849 -7.062,-3.221c-0.132,-0.025 -0.267,-0.051 -0.298,-0.057c-0.056,-0.011 -0.06,-0.003 -0.189,0.346l0,0.001zm1.866,1.565c1.732,0.625 3.521,1.577 5.453,2.9c0.242,0.166 0.459,0.302 0.482,0.302s0.189,-0.04 0.369,-0.089c2.093,-0.565 6.331,-0.576 8.415,-0.022c0.223,0.059 0.421,0.111 0.44,0.115s0.29,-0.166 0.602,-0.378c2.095,-1.424 4.031,-2.415 5.867,-3.004l0.304,-0.098l0.039,0.124c0.602,1.93 0.83,4.38 0.549,5.905l-0.081,0.441l0.064,0.076c0.035,0.042 0.219,0.247 0.408,0.457c1.873,2.074 2.46,4.122 2.15,7.51c-0.17,1.866 -0.657,3.534 -1.417,4.855c-0.13,0.226 -0.511,0.81 -0.529,0.81c-0.005,0 0.03,-0.116 0.078,-0.257c0.462,-1.37 0.588,-3.302 0.304,-4.646c-0.449,-2.126 -1.96,-3.978 -3.837,-4.702c-0.911,-0.352 -1.852,-0.494 -3.266,-0.494c-0.815,0 -1.053,0.01 -2.495,0.108c-1.594,0.108 -1.788,0.118 -2.554,0.143c-1.12,0.035 -2.015,0.006 -3.969,-0.132c-3.367,-0.237 -4.745,-0.134 -6.136,0.461c-1.685,0.72 -3.094,2.448 -3.578,4.386c-0.358,1.434 -0.248,3.365 0.282,4.937c0.087,0.258 0.075,0.252 -0.137,-0.067c-1.16,-1.746 -1.724,-3.763 -1.824,-6.519c-0.101,-2.773 0.536,-4.555 2.331,-6.522c0.252,-0.276 0.363,-0.413 0.355,-0.438c-0.341,-1.123 -0.248,-3.434 0.217,-5.38c0.074,-0.311 0.266,-1.007 0.285,-1.039c0.013,-0.021 0.339,0.08 0.831,0.258l-0.002,-0.001zm5.953,11.237c0.217,0.012 0.891,0.056 1.499,0.097c2.819,0.191 3.479,0.189 6.523,-0.021c1.367,-0.094 1.638,-0.106 2.397,-0.106c2.436,0.001 3.692,0.522 4.8,1.994c1.022,1.357 1.324,3.101 0.9,5.198c-0.739,3.658 -3.609,5.196 -10.033,5.378c-9.419,0.266 -12.965,-1.61 -13.178,-6.971c-0.062,-1.55 0.401,-2.881 1.385,-3.983c1.212,-1.357 2.66,-1.759 5.708,-1.586l-0.001,0zm-1.174,2.689c-1.71,0.314 -2.573,2.923 -1.613,4.877c1.205,2.452 3.982,1.391 4.125,-1.576c0.091,-1.904 -1.16,-3.549 -2.512,-3.301zm10.991,0.013c-1.988,0.408 -2.662,3.913 -1.073,5.578c1.474,1.544 3.563,0.191 3.628,-2.35c0.05,-1.968 -1.172,-3.512 -2.555,-3.228zm-10.604,1.408c0.916,0.416 0.955,2.785 0.056,3.355c-0.493,0.313 -1.1,-0.731 -1.046,-1.796c0.048,-0.941 0.563,-1.752 0.99,-1.559zm11.105,0.035c0.856,0.55 0.872,2.742 0.024,3.304c-0.601,0.397 -1.26,-0.99 -1.03,-2.169c0.163,-0.838 0.637,-1.372 1.006,-1.134l0,-0.001z" fill="#29282a" id="svg_1"/>
 </g>
</svg>