<svg xmlns="http://www.w3.org/2000/svg" xmlns:xlink="http://www.w3.org/1999/xlink" version="1.1" width="1000" height="1000" viewBox="0 0 1000 1000" xml:space="preserve">
<desc>Created with Fabric.js 3.5.0</desc>
<defs>
</defs>
<rect x="0" y="0" width="100%" height="100%" fill="#ffffff"/>
<g transform="matrix(14.2045 0 0 14.2045 499.9985 499.9986)" id="766928">
<path style="stroke: none; stroke-width: 0; stroke-dasharray: none; stroke-linecap: butt; stroke-dashoffset: 0; stroke-linejoin: miter; stroke-miterlimit: 4; is-custom-font: none; font-file-url: none; fill: rgb(65,64,66); fill-rule: nonzero; opacity: 1;" vector-effect="non-scaling-stroke" transform=" translate(-32, -31)" d="M 32 0 C 14 0 0 14 0 32 C 0 53 19 62 22 62 C 24 62 24 61 24 60 L 24 55 C 17 57 14 53 13 50 C 13 50 13 49 11 47 C 10 46 6 44 10 44 C 13 44 15 48 15 48 C 18 52 22 51 24 50 C 24 48 26 46 26 46 C 18 45 12 42 12 31 C 12 27 13 24 15 22 C 15 22 13 18 15 13 C 15 13 20 13 24 17 C 27 15 37 15 40 17 C 44 13 49 13 49 13 C 51 20 49 22 49 22 C 51 24 52 27 52 31 C 52 42 45 45 38 46 C 39 47 40 49 40 52 L 40 60 C 40 61 40 62 42 62 C 45 62 64 53 64 32 C 64 14 50 0 32 0 Z" stroke-linecap="round"/>
</g>
</svg>