<svg xmlns="http://www.w3.org/2000/svg" xmlns:xlink="http://www.w3.org/1999/xlink" version="1.1" width="1000" height="1000" viewBox="0 0 1000 1000" xml:space="preserve">
<desc>Created with Fabric.js 3.5.0</desc>
<defs>
</defs>
<rect x="0" y="0" width="100%" height="100%" fill="#ffffff"/>
<g transform="matrix(1.7756 0 0 1.7756 500.0081 500.0081)" id="526812">
<g style="" vector-effect="non-scaling-stroke">
		<g transform="matrix(1 0 0 1 0 0)" id="Layer_1">
<path style="stroke: none; stroke-width: 1; stroke-dasharray: none; stroke-linecap: butt; stroke-dashoffset: 0; stroke-linejoin: miter; stroke-miterlimit: 4; is-custom-font: none; font-file-url: none; fill: rgb(65,64,66); fill-rule: nonzero; opacity: 1;" transform=" translate(-256, -256)" d="M 369.44 0 H 141.889 C 97.971 0 62.578 36.182 62.578 80.108 v 352.675 c 0 43.927 35.393 79.217 79.311 79.217 H 369.44 c 43.917 0 79.982 -35.29 79.982 -79.217 V 80.108 C 449.422 36.182 413.357 0 369.44 0 z M 426.667 432.783 c 0 31.379 -25.857 56.461 -57.227 56.461 H 141.889 c -31.371 0 -56.556 -25.082 -56.556 -56.461 V 80.108 c 0 -31.379 25.185 -57.353 56.556 -57.353 H 369.44 c 31.37 0 57.227 25.973 57.227 57.353 V 432.783 z" stroke-linecap="round"/>
</g>
		<g transform="matrix(1 0 0 1 0 -187.733)" id="Layer_1">
<rect style="stroke: none; stroke-width: 1; stroke-dasharray: none; stroke-linecap: butt; stroke-dashoffset: 0; stroke-linejoin: miter; stroke-miterlimit: 4; is-custom-font: none; font-file-url: none; fill: rgb(65,64,66); fill-rule: nonzero; opacity: 1;" x="-102.4" y="-11.378" rx="0" ry="0" width="204.8" height="22.756"/>
</g>
		<g transform="matrix(1 0 0 1 -108.089 -62.5775)" id="Layer_1">
<path style="stroke: none; stroke-width: 1; stroke-dasharray: none; stroke-linecap: butt; stroke-dashoffset: 0; stroke-linejoin: miter; stroke-miterlimit: 4; is-custom-font: none; font-file-url: none; fill: rgb(65,64,66); fill-rule: nonzero; opacity: 1;" transform=" translate(-147.911, -193.4225)" d="M 153.6 170.667 h -11.378 c -6.283 0 -11.378 5.094 -11.378 11.378 V 204.8 c 0 6.283 5.094 11.378 11.378 11.378 H 153.6 c 6.283 0 11.378 -5.094 11.378 -11.378 v -22.756 C 164.978 175.761 159.883 170.667 153.6 170.667 z" stroke-linecap="round"/>
</g>
		<g transform="matrix(1 0 0 1 -108.089 39.8225)" id="Layer_1">
<path style="stroke: none; stroke-width: 1; stroke-dasharray: none; stroke-linecap: butt; stroke-dashoffset: 0; stroke-linejoin: miter; stroke-miterlimit: 4; is-custom-font: none; font-file-url: none; fill: rgb(65,64,66); fill-rule: nonzero; opacity: 1;" transform=" translate(-147.911, -295.8225)" d="M 153.6 273.067 h -11.378 c -6.283 0 -11.378 5.094 -11.378 11.378 V 307.2 c 0 6.283 5.094 11.378 11.378 11.378 H 153.6 c 6.283 0 11.378 -5.094 11.378 -11.378 v -22.756 C 164.978 278.161 159.883 273.067 153.6 273.067 z" stroke-linecap="round"/>
</g>
		<g transform="matrix(1 0 0 1 -108.089 142.2225)" id="Layer_1">
<path style="stroke: none; stroke-width: 1; stroke-dasharray: none; stroke-linecap: butt; stroke-dashoffset: 0; stroke-linejoin: miter; stroke-miterlimit: 4; is-custom-font: none; font-file-url: none; fill: rgb(65,64,66); fill-rule: nonzero; opacity: 1;" transform=" translate(-147.911, -398.2225)" d="M 153.6 375.467 h -11.378 c -6.283 0 -11.378 5.094 -11.378 11.378 V 409.6 c 0 6.283 5.094 11.378 11.378 11.378 H 153.6 c 6.283 0 11.378 -5.094 11.378 -11.378 v -22.756 C 164.978 380.561 159.883 375.467 153.6 375.467 z" stroke-linecap="round"/>
</g>
		<g transform="matrix(1 0 0 1 34.133 -62.578)" id="Layer_1">
<rect style="stroke: none; stroke-width: 1; stroke-dasharray: none; stroke-linecap: butt; stroke-dashoffset: 0; stroke-linejoin: miter; stroke-miterlimit: 4; is-custom-font: none; font-file-url: none; fill: rgb(65,64,66); fill-rule: nonzero; opacity: 1;" x="-91.022" y="-11.378" rx="0" ry="0" width="182.044" height="22.756"/>
</g>
		<g transform="matrix(1 0 0 1 34.133 39.822)" id="Layer_1">
<rect style="stroke: none; stroke-width: 1; stroke-dasharray: none; stroke-linecap: butt; stroke-dashoffset: 0; stroke-linejoin: miter; stroke-miterlimit: 4; is-custom-font: none; font-file-url: none; fill: rgb(65,64,66); fill-rule: nonzero; opacity: 1;" x="-91.022" y="-11.378" rx="0" ry="0" width="182.044" height="22.756"/>
</g>
		<g transform="matrix(1 0 0 1 34.133 142.222)" id="Layer_1">
<rect style="stroke: none; stroke-width: 1; stroke-dasharray: none; stroke-linecap: butt; stroke-dashoffset: 0; stroke-linejoin: miter; stroke-miterlimit: 4; is-custom-font: none; font-file-url: none; fill: rgb(65,64,66); fill-rule: nonzero; opacity: 1;" x="-91.022" y="-11.378" rx="0" ry="0" width="182.044" height="22.756"/>
</g>
</g>
</g>
</svg>