<svg xmlns="http://www.w3.org/2000/svg" xmlns:xlink="http://www.w3.org/1999/xlink" version="1.1" width="1000" height="1000" viewBox="0 0 1000 1000" xml:space="preserve">
<desc>Created with Fabric.js 3.5.0</desc>
<defs>
</defs>
<rect x="0" y="0" width="100%" height="100%" fill="#ffffff"/>
<g transform="matrix(21.645 0 0 21.645 499.9992 499.9994)" id="469990">
<path style="stroke: none; stroke-width: 1; stroke-dasharray: none; stroke-linecap: butt; stroke-dashoffset: 0; stroke-linejoin: miter; stroke-miterlimit: 4; is-custom-font: none; font-file-url: none; fill: rgb(65,64,66); fill-rule: nonzero; opacity: 1;" vector-effect="non-scaling-stroke" transform=" translate(-24, -24.5)" d="M 41.4193 7.30899 C 41.4193 7.30899 45.3046 5.79399 44.9808 9.47328 C 44.8729 10.9883 43.9016 16.2908 43.1461 22.0262 L 40.5559 39.0159 C 40.5559 39.0159 40.3401 41.5048 38.3974 41.9377 C 36.4547 42.3705 33.5408 40.4227 33.0011 39.9898 C 32.5694 39.6652 24.9068 34.7955 22.2086 32.4148 C 21.4531 31.7655 20.5897 30.4669 22.3165 28.9519 L 33.6487 18.1305 C 34.9438 16.8319 36.2389 13.8019 30.8426 17.4812 L 15.7331 27.7616 C 15.7331 27.7616 14.0063 28.8437 10.7686 27.8698 L 3.75342 25.7055 C 3.75342 25.7055 1.16321 24.0823 5.58815 22.459 C 16.3807 17.3729 29.6555 12.1786 41.4193 7.30899 Z" stroke-linecap="round"/>
</g>
</svg>